<svg height="24" width="24" xmlns="http://www.w3.org/2000/svg"><path d="m20.751 1032.1c-.123-.3-.49-.4-1.22-.4-1.274.1-3.533 4.6-3.42 1.8-1.928-1.1-.173 3.2-2.238 3.6-1.302 1.4-.701-.9-.836-1.6-.21-1 .262-1.7 1.003-2.2l2.061-2.1c-1.033-2.7-3.586 3-2.971-.3.49-1-.321-2.4-1.087-2.5h.012c-.202 0-.394.1-.576.3-.165.1-.322.3-.433.6h-.012c-.056.1-.114.3-.148.4h-.011c-.025.1-.058.2-.066.4h.016c-.006.1-.012.2.01.4h.016c.024.1.051.3.107.4h.016c.071.4.091.7.079.8-.001 0 .016.1.015.1-.007 0-.039.1-.062.1-.025 0-.067.1-.109.1-.043 0-.089-.1-.146-.1-.171-.1-.387-.4-.647-.6-.3388-.3-.7419-.7-1.1107-.8-.1957 0-.3753 0-.5496.1-.0838 0-.1514.1-.2267.2-.0826.1-.1598.3-.2298.4l2.0508 2.1c.371.2.674.6.853.9.044.1.087.2.115.3.029.1.048.2.06.3.028.2.011.4-.044.7-.034.1-.015.4.004.7.009.2-.01.3-.002.4.006.2.032.4.025.5-.005.1-.007.2-.038.3-.045.1-.135.1-.262.1-.123 0-.305-.2-.536-.4h-.016c-.248-.1-.4482-.2-.5984-.3-.0767-.1-.1293-.2-.1857-.3-.0602-.1-.1223-.2-.1625-.3-.0738-.2-.1099-.5-.1406-.7h-.0158c-.0144-.2-.0122-.3-.0212-.4-.0098-.1-.0023-.2-.0096-.4-.007-.1-.0128-.2-.0212-.3-.0085-.1-.0347-.3-.0486-.4-.0065 0-.0276 0-.036-.1-.0934-.5-.3118-.8-.9758-.4h.0159c.0055.2-.0079.3-.0178.4-.0006 0 .0164 0 .0158.1-.0111.1-.045.1-.0695.2-.0268.1-.0485.1-.0897.2h-.1529c-.1079 0-.2485-.1-.3977-.2-.4423-.4-1.033-1.2-1.6102-1.8-.3883-.4-.7751-.7-1.0951-.7-.0067 0-.0092-.1-.0159-.1-.7482 0-1.09.2-1.2033.5-.0309.1-.056.2-.058.3-.0017 0 .0209.1.0444.2.044.2.1339.4.266.7.2471.4.6241.8 1.0109 1.2.3954.4.798.7 1.1036.9.4277.3.6254.5.6468.6.0056 0-.0107.1-.0232.1-.114.2-.8859.1-1.2709.3-.0853.1-.1492.2-.1834.3.0324.1.077.1.1266.2.1491.2.3546.3.6182.4.5283.1 1.227 0 1.8544.1.2058.1.398.1.5781.2.2702.1.5007.3.6626.6.054.2.0977.3.1352.4.2038.1.3496.2.4452.3s.1348.2.1425.3h-.0116c-.0149 0-.0242 0-.0549.1-.3061.1-1.3457-.1-1.8142 0-.3788.1-.7288.1-1.0485 0-.3196-.1-.6141-.2-.8893-.4-.1297-.1-.2638-.2-.3861-.3-.1292-.1-.2677-.2-.3904-.3-.2385-.3-.475-.6-.6985-.8-.0316-.1-.0561-.2-.1035-.3-.0501-.1-.1208-.2-.1857-.3-.0547 0-.1196-.1-.1815-.2-.0689 0-.1458 0-.2205-.1h-.2437c-.2285-.1-.4694 0-.6634 0-.1447.1-.2399.2-.3248.3-.0424 0-.0801.1-.1055.1-.0248.1-.0417.1-.0463.2h.0158c-.0011.1.0083.1.0243.2.043.2.1778.5.5255.7.5853.3.8616.6.9264.8.0162 0 .0014.1-.0073.1-.011 0 .0005.1-.0232.1h-.0274c-.1326.1-.3912.2-.7257.2h-.0274-.5379-.0275-1.1117c-.3097 0-.53565.1-.70561.3h-.05484c-.13882.1-.23114.2-.2773.3-.005109 0-.007255.1-.011588.1-.016489 0-.046.1-.046356.1-.00037193 0 .015841.1.015831.1.00236 0 .02076.1.040145.2.077328.3.33768.5.68693.8.17292.1.35029.2.55489.2.4175.2.8726.2 1.2879 0 .7878-.2 1.0665-.1 1.0801 0-.011.1-.0827.2-.2066.3-.1307.2-.3029.4-.4808.5-.1594.2-.3289.4-.465.6h-.0116c-.1383.2-.263.4-.3078.5-.0207.1-.0358.2-.0263.3h.0158c.0019.1.0133.1.0158.1.0432.2.2321.5.7217.6l2.0605-2c.0083 0 .0032 0 .0115-.1.1385-.1.2693-.3.426-.4.4698-.4 1.0347-.6 1.7456-.5.5365.1 1.7368-.2 2.0305.1h.0475c.004.1.0138.1.0158.1.0008 0-.012 0-.0232.1-.0437.1-.1799.3-.4491.5h.0158c-.0218.2-.0613.3-.1086.3-.6165 1.3-3.2287.5-3.6038 1.2-.024 0-.0577.1-.0622.2h.0158c-.0015 0-.0138.1.0127.2.0264.1.0777.2.1468.3h.0158c.3539 0 .5796 0 .7268.1.1259 0 .2104.1.1973.2-.0779.6-2.2764 1.9-2.7205 2.9-.0367 0-.0749.1-.0853.2h.0158c-.0013.2-.0056.4.0139.5h.0158c.0205.1.0383.2.076.3.0034 0 .0124.1.0159.1.0819.1.2066.3.3471.3.8793.4 2.7715-1.4 3.3198-2.3.3514-.5.5468-.7.6569-.7.0421.1.0728.1.095.2h.0158c.0226.1.0326.2.0486.4.0426.3.1058.7.3104.9h.1456c.1193.1.2582.1.463 0 .0002-.1.0115-.1.0116-.1.0018-.2-.0084-.4.0051-.6.001 0 .0105 0 .0116-.1.0145-.2.0461-.4.0757-.6h.0116c.0317-.2.0677-.4.119-.6.0539-.2.1107-.5.1897-.6.1352-.4.3291-.7.5535-1 .0436 0 .0695-.1.117-.2.1409-.1.2749-.3.4529-.4.178-.2.381-.3.599-.5l-.004 3.5c-.427.7-1.2623 1.3-1.8523 2-.2386.1-.4074.2-.5442.4-.054 0-.1206.1-.1602.1-.0075 0-.0046 0-.0116.1-.0438 0-.0764.1-.1012.2h-.0116c-.0327.1-.073.2-.0653.3.0066.2.055.3.1235.4.097.2.2515.3.4294.3.0692.1.1219.1.2004.1.14 0 .2982-.1.4588-.2.1607-.1.3266-.2.4967-.5.1346-.1.2536-.3.3556-.4.203-.2.361-.3.462-.4.036 0 .077.1.102.1.062.1.086.2.096.4s.021.5.015.7c-.007.3-.031.6-.02.9h.016c.012.3.029.5.09.8.061.2.176.4.321.6.075.1.148.1.252.2.11 0 .224.1.373.1 2.182 0-.082-5.8 2.065-3 1.36 1.7 2.594-.5.819-1.2-.59-.7-1.451-1.2-1.878-2l-.012-3.4c1.75 1 2.15 2.7 2.165 4.6 1.518.7.334-2.8 1.74-.8.725 1.2 3.859 4 3.815 1.1-.183-1.2-4.696-3.5-1.865-3.4 1.134-1.9-3.239-.1-3.58-2.2-1.436-1.3.813-.6 1.611-.8.947-.2 1.618.3 2.172 1l2.067 2c2.718-1-3.002-3.5.359-2.9 1.627.7 3.941-1.6 1.464-2.1-1.313.1-3.917.1-1.576-1.2 1.739-1.3-.978-2.4-1.484-.6-.92 1-1.893 2.2-3.408 1.8-.75-.1-2.949.4-1.319-.7.6-2.1 3.478-.5 3.997-1.9-.274-.8-2.553 0-.842-1.3.917-.5 2.764-2.4 2.397-3.3z" fill="#3498db" transform="translate(0 -1028.4)"/></svg>